<?xml version="1.0" encoding="UTF-8" standalone="no"?>
<!DOCTYPE svg PUBLIC "-//W3C//DTD SVG 1.1//EN" "http://www.w3.org/Graphics/SVG/1.1/DTD/svg11.dtd">
<svg width="100%" height="100%" viewBox="0 0 128 128" version="1.1" xmlns="http://www.w3.org/2000/svg" xmlns:xlink="http://www.w3.org/1999/xlink" xml:space="preserve" xmlns:serif="http://www.serif.com/" style="fill-rule:evenodd;clip-rule:evenodd;stroke-linejoin:round;stroke-miterlimit:2;">
    <g>
        <path d="M97.507,101.579L97.627,79.729L109.122,70.689L108.602,92.701L97.507,101.579Z"/>
        <path d="M97.802,69.561L109.527,60.791L110.162,38.451L98.019,46.783L97.802,69.561Z"/>
        <path d="M73.205,41.774L85.118,33.932L108.893,37.962L97.055,46.234L73.205,41.774Z"/>
        <path d="M35.287,41.358L54.112,45.271L37.204,56.004L17.028,51.661L35.287,41.358Z"/>
        <path d="M16.243,52.413L36.396,56.832L38.321,79.535L19.552,74.636L16.243,52.413Z"/>
        <path d="M47.755,58.359L64.574,47.415L88.642,52.257L72.122,63.733L47.755,58.359Z"/>
        <path d="M47.231,59.258L48.612,82.243L72.092,88.395L71.634,64.666L47.231,59.258Z"/>
        <g transform="matrix(1,0,0,1,0.63968,34.4898)">
            <path d="M48.603,57.829L49.913,79.97L71.914,87.095L71.634,64.666L48.603,57.829Z"/>
        </g>
        <path d="M72.524,64.559L89.332,52.858L89.321,75.977L72.937,88.131L72.524,64.559Z"/>
        <g transform="matrix(1,0,0,1,0.63968,34.4898)">
            <path d="M72.524,64.5L88.645,51.791L88.725,73.637L72.815,86.654L72.524,64.5Z"/>
        </g>
        <path d="M24.133,105.993L20.938,83.955L38.956,89.249L40.783,111.342L24.133,105.993Z"/>
        <path d="M62.593,39.812L74.517,32.193L57.472,29.232L44.793,36.323"/>
    </g>
</svg>
